# xmcd
#
# Track frame offsets: 
#        150
#        11114
#        27068
#        36563
#        50432
#        64089
#        80797
#        89265
#        105467
#        119127
#        131431
#        145529
#        154296
#
# Disc length: 2250 seconds
#
# Revision: 0
# Processed by: cddbd v1.5.2PL0 Copyright (c) Steve Scherf et al.
# Submitted via: ExactAudioCopy v1.3
#
DISCID=b108c80d
DTITLE=urban pioneers - hillbilly swing music
DYEAR=2018
DGENRE=Bluegrass
TTITLE0=hillbilly swing music
TTITLE1=waste my time
TTITLE2=why don't you close your eyes
TTITLE3=throwed out
TTITLE4=fast money
TTITLE5=can't make you love me too
TTITLE6=run little rabbit run
TTITLE7=texas wildflower
TTITLE8=flip, flop, and fly
TTITLE9=kitty's favorite day
TTITLE10=smoky mountains
TTITLE11=miller, jack, and maddog
TTITLE12=tortured orchard
EXTD=
EXTT0=
EXTT1=
EXTT2=
EXTT3=
EXTT4=
EXTT5=
EXTT6=
EXTT7=
EXTT8=
EXTT9=
EXTT10=
EXTT11=
EXTT12=
PLAYORDER=
